<svg xmlns="http://www.w3.org/2000/svg" width="1957.127" height="798.632" viewBox="0 0 1957.127 798.632">
  <g id="Group_76" data-name="Group 76" transform="translate(-3062.689 3144.112)">
    <path id="Path_7652" data-name="Path 7652" d="M77.608,457.162c82.733-60.565,204.656-60.864,287.685-.7C391.2,475.236,414.671,502.1,416,534.071c1.65,39.572-37.821,75.544-77.07,70.24-9.911-1.338-19.69-5-27.2-11.6-25.257-22.193-14.34-64.3,5.26-91.615,34.429-47.987,88.094-79.433,144.315-97.535s115.511-24.052,174.284-29.9" transform="matrix(0.839, 0.545, -0.545, 0.839, 3336.385, -3206.948)" fill="none" stroke="#4883f1" stroke-miterlimit="10" stroke-width="18"/>
    <path id="Path_7650" data-name="Path 7650" d="M96.65,803.232c90.649,50.38,205.967,53.465,299.18,8.01,42.011-20.487,80.9-52.042,98.514-95.334s8.668-99.254-29.045-126.864-102.088-12.38-115.12,32.509c-13.158,45.323,26.429,88.987,67.495,112.254,119.4,67.646,281.815,48.229,381.9-45.663,31.57-29.615,57.152-65.48,90.948-92.526,56.825-45.474,135.689-61.973,205.977-43.088,43.815,11.769,89.232,46.176,85.58,91.4" transform="translate(3348.35 -3679.844)" fill="none" stroke="#f98d8a" stroke-miterlimit="10" stroke-width="18"/>
    <path id="Path_7653" data-name="Path 7653" d="M440.935,281.927C497.727,328.631,554.461,382.534,573.7,453.5S557.95,614.71,485.963,629.7c-26.621,5.544-62.746-9.055-59.75-36.083.878-7.915,5.184-15.1,10.485-21.046,27.859-31.262,81.269-28.146,113.716-1.673s46.954,69.487,51.276,111.139c9.007,86.832-23.543,179.862-93.1,232.618-13.936,10.57-29.883,19.7-47.339,20.79s-36.472-7.855-42.489-24.276c-10.22-27.891,22.785-55.058,52.482-54.443,44.984.931,80.1,38.461,105.311,75.728a624.825,624.825,0,0,1,86.475,190.457" transform="translate(3753.043 -2398.089) rotate(-74)" fill="none" stroke="#ff9a4e" stroke-miterlimit="10" stroke-width="18"/>
  </g>
</svg>
